<?xml version="1.0" encoding="UTF-8"?><svg xmlns="http://www.w3.org/2000/svg" xmlns:xlink="http://www.w3.org/1999/xlink" height="932.5" preserveAspectRatio="xMidYMid meet" version="1.0" viewBox="110.7 170.3 1051.6 932.5" width="1051.6" zoomAndPan="magnify"><defs><clipPath id="a"><path d="M 0 0 L 1275.589844 0 L 1275.589844 1275.589844 L 0 1275.589844 Z M 0 0"/></clipPath></defs><g><g clip-path="url(#a)"/><g id="change1_1"><path d="M 567.667969 213.828125 L 355.820312 580.753906 L 355.71875 580.695312 L 124.070312 981.929688 C 112.980469 1001.121094 110.726562 1023.039062 116.023438 1042.929688 C 121.324219 1062.808594 134.191406 1080.671875 153.359375 1091.78125 C 159.503906 1095.339844 166.03125 1098.050781 172.792969 1099.871094 C 179.550781 1101.679688 186.558594 1102.609375 193.652344 1102.609375 L 1081.738281 1102.75 L 1081.738281 1102.761719 L 1081.761719 1102.761719 C 1103.988281 1102.761719 1124.128906 1093.738281 1138.699219 1079.160156 C 1153.269531 1064.589844 1162.289062 1044.460938 1162.289062 1022.21875 L 1162.300781 1022.21875 L 1162.300781 1022.210938 C 1162.300781 1014.261719 1161.140625 1006.429688 1158.878906 998.933594 C 1156.628906 991.457031 1153.28125 984.3125 1148.898438 977.71875 L 929.3125 597.375 L 929.308594 597.375 C 928.9375 596.730469 928.566406 596.117188 928.203125 595.527344 C 927.8125 594.890625 927.429688 594.289062 927.058594 593.71875 L 707.289062 213.058594 C 696.21875 193.890625 678.402344 180.980469 658.566406 175.628906 C 638.746094 170.28125 616.882812 172.46875 597.695312 183.488281 C 591.394531 187.109375 585.65625 191.53125 580.605469 196.628906 C 575.570312 201.730469 571.207031 207.5 567.667969 213.828125" fill="#fc0" fill-rule="evenodd"/></g><g id="change2_1"><path d="M 1118.128906 996.71875 L 915.816406 646.296875 L 915.765625 646.324219 L 897.976562 615.472656 L 897.90625 615.335938 L 897.761719 615.089844 L 897.691406 614.886719 L 897.546875 614.640625 L 897.410156 614.4375 L 897.203125 614.109375 L 896.859375 613.582031 L 896.792969 613.515625 L 896.035156 612.355469 L 675.976562 231.191406 L 675.976562 231.121094 C 673.019531 226.019531 669.164062 221.640625 664.585938 218.128906 C 660.027344 214.628906 654.78125 212.03125 649.097656 210.5 C 643.550781 209 637.761719 208.628906 632.039062 209.371094 C 626.355469 210.089844 620.828125 211.929688 615.722656 214.859375 C 613.855469 215.941406 612.21875 217.019531 610.8125 218.101562 C 609.246094 219.300781 607.746094 220.609375 606.339844 222.039062 C 605.003906 223.398438 603.699219 224.910156 602.449219 226.570312 C 601.148438 228.300781 600.054688 229.929688 599.210938 231.460938 L 599.035156 231.769531 L 599.070312 231.800781 L 369.078125 630.160156 L 368.988281 630.101562 L 155.171875 1000.441406 L 155.03125 1000.640625 C 152.179688 1005.761719 150.421875 1011.21875 149.734375 1016.75 C 149.046875 1022.28125 149.453125 1027.980469 150.929688 1033.558594 C 152.460938 1039.289062 155.050781 1044.539062 158.535156 1049.121094 C 162.003906 1053.671875 166.367188 1057.539062 171.472656 1060.5 C 173.195312 1061.488281 174.941406 1062.359375 176.699219 1063.101562 C 178.515625 1063.851562 180.34375 1064.480469 182.210938 1064.980469 C 183.882812 1065.429688 185.78125 1065.800781 187.878906 1066.070312 C 189.742188 1066.320312 191.679688 1066.441406 193.667969 1066.441406 L 1082.71875 1066.570312 C 1088.53125 1066.441406 1094.089844 1065.238281 1099.179688 1063.058594 C 1104.421875 1060.820312 1109.148438 1057.648438 1113.171875 1053.628906 C 1117.289062 1049.511719 1120.53125 1044.601562 1122.78125 1039.160156 C 1124.96875 1033.878906 1126.121094 1028.148438 1126.121094 1022.210938 L 1126.191406 1022.210938 L 1126.191406 1021.589844 L 1126.121094 1021.25 C 1126.070312 1019.230469 1125.890625 1017.238281 1125.578125 1015.28125 C 1125.230469 1013.050781 1124.800781 1011.089844 1124.300781 1009.410156 C 1123.679688 1007.371094 1122.898438 1005.328125 1121.941406 1003.308594 C 1121.03125 1001.371094 1119.980469 999.5 1118.800781 997.722656 Z M 894.128906 678.613281 L 902.671875 693.425781 L 902.679688 693.421875 L 1088.191406 1014.730469 L 1088.730469 1015.621094 L 1089.660156 1017.011719 C 1089.921875 1017.410156 1090.148438 1017.808594 1090.339844 1018.230469 C 1090.5 1018.550781 1090.640625 1018.949219 1090.78125 1019.398438 C 1090.96875 1020.039062 1091.078125 1020.449219 1091.109375 1020.609375 C 1091.160156 1020.941406 1091.199219 1021.269531 1091.21875 1021.589844 L 1091.160156 1021.589844 L 1091.160156 1022.210938 L 1091.230469 1022.210938 C 1091.230469 1023.480469 1090.980469 1024.730469 1090.5 1025.890625 C 1090.089844 1026.878906 1089.378906 1027.890625 1088.410156 1028.871094 C 1087.46875 1029.800781 1086.488281 1030.488281 1085.5 1030.910156 C 1084.371094 1031.398438 1083.199219 1031.660156 1082.039062 1031.691406 L 193.667969 1031.550781 C 193.28125 1031.550781 192.859375 1031.519531 192.402344 1031.460938 C 192.191406 1031.429688 191.804688 1031.339844 191.238281 1031.191406 C 190.835938 1031.078125 190.449219 1030.949219 190.097656 1030.808594 C 189.691406 1030.628906 189.304688 1030.449219 188.988281 1030.261719 C 187.914062 1029.640625 187.015625 1028.851562 186.292969 1027.910156 C 185.589844 1026.96875 185.042969 1025.878906 184.726562 1024.671875 C 184.410156 1023.480469 184.320312 1022.230469 184.480469 1020.980469 C 184.640625 1019.738281 184.992188 1018.601562 185.535156 1017.609375 L 185.519531 1017.601562 L 381.75 677.714844 L 381.855469 677.769531 L 629.398438 249.011719 L 629.539062 248.878906 L 629.714844 248.558594 C 630.015625 248.019531 630.226562 247.660156 630.351562 247.5 C 630.523438 247.269531 630.773438 246.988281 631.105469 246.660156 C 631.371094 246.390625 631.671875 246.128906 632.003906 245.871094 C 632.515625 245.488281 632.886719 245.230469 633.113281 245.101562 C 634.152344 244.5 635.261719 244.121094 636.40625 243.980469 C 637.53125 243.828125 638.765625 243.941406 640.066406 244.289062 C 641.316406 244.621094 642.425781 245.171875 643.375 245.898438 C 644.289062 246.601562 645.101562 247.53125 645.734375 248.628906 L 645.769531 248.609375 L 866.234375 630.480469 L 866.714844 631.304688 L 867.464844 632.449219 L 867.445312 632.460938 L 867.523438 632.578125 L 867.519531 632.578125 L 867.59375 632.699219 L 867.585938 632.699219 L 867.730469 632.941406 L 867.769531 632.921875 L 867.808594 632.984375 L 867.816406 632.980469 L 894.128906 678.613281" fill="inherit" fill-rule="evenodd"/></g><g id="change2_2"><path d="M 574.945312 730.855469 C 574.945312 712.414062 590.050781 697.308594 608.492188 697.308594 C 626.9375 697.308594 642.039062 712.414062 642.039062 730.855469 L 642.039062 796.871094 C 642.039062 815.316406 626.933594 830.417969 608.492188 830.417969 C 590.050781 830.417969 574.945312 815.316406 574.945312 796.871094 Z M 533.117188 830.417969 C 514.675781 830.417969 499.570312 815.3125 499.570312 796.871094 L 499.570312 730.855469 C 499.570312 712.414062 514.675781 697.308594 533.117188 697.308594 C 551.558594 697.308594 566.664062 712.414062 566.664062 730.855469 L 566.664062 796.871094 C 566.664062 815.316406 551.558594 830.417969 533.117188 830.417969 Z M 457.738281 830.417969 C 439.300781 830.417969 424.195312 815.3125 424.195312 796.871094 L 424.195312 730.855469 C 424.195312 712.414062 439.296875 697.308594 457.742188 697.308594 C 476.183594 697.308594 491.285156 712.414062 491.285156 730.855469 L 491.285156 796.871094 C 491.285156 815.316406 476.183594 830.417969 457.738281 830.417969 Z M 533.117188 838.703125 C 516.789062 838.703125 502.300781 829.179688 495.429688 814.972656 C 482.964844 840.742188 448.753906 846.976562 428.195312 826.417969 C 426.753906 824.976562 425.414062 823.429688 424.195312 821.792969 L 424.195312 951.003906 C 424.195312 966.96875 437.226562 980 453.1875 980 L 453.1875 980.015625 L 805.96875 980.015625 L 805.96875 980 C 830.945312 980 851.394531 959.550781 851.394531 934.574219 C 851.394531 909.597656 830.945312 889.148438 805.96875 889.148438 L 733.355469 889.148438 L 733.355469 889.140625 L 722.441406 889.140625 C 719.363281 889.140625 716.726562 887.59375 715.21875 884.914062 C 691.472656 842.644531 633.691406 834.550781 599.257812 868.988281 C 585.96875 882.277344 577.746094 900.640625 577.746094 920.921875 C 577.746094 923.210938 575.890625 925.0625 573.605469 925.0625 C 571.316406 925.0625 569.460938 923.210938 569.460938 920.921875 C 569.460938 875.785156 606.054688 839.191406 651.191406 839.191406 C 677.527344 839.191406 702.15625 851.929688 717.433594 873.0625 L 717.433594 561.960938 L 717.414062 561.960938 C 717.414062 543.515625 702.3125 528.414062 683.871094 528.414062 C 665.425781 528.414062 650.324219 543.515625 650.324219 561.960938 L 650.324219 796.871094 C 650.324219 819.886719 631.507812 838.703125 608.492188 838.703125 C 592.164062 838.703125 577.675781 829.179688 570.804688 814.972656 C 563.933594 829.179688 549.445312 838.703125 533.117188 838.703125" fill="inherit" fill-rule="evenodd"/></g></g></svg>