<?xml version="1.0" encoding="UTF-8"?><svg xmlns="http://www.w3.org/2000/svg" xmlns:xlink="http://www.w3.org/1999/xlink" height="434.4" preserveAspectRatio="xMidYMid meet" version="1.0" viewBox="4.3 41.0 495.0 434.4" width="495.0" zoomAndPan="magnify"><g fill="#FF5F91" id="change1_1"><path d="M364.3,41.1c-2.7,0.4-4.9,2.3-5.4,4.9c-0.1,0.4-0.1,0.7-0.1,1.1c-0.6,0.8-0.9,1.7-1,2.7 c-0.3,4.9-0.7,9.8-1.1,14.4c-0.1,1-0.2,2-0.2,3c-0.2,2.1-0.3,4.3-0.6,6.4c-0.2,2-0.5,4.1-0.7,6.1c-0.5,4.7-1.1,9.5-1.7,14.3 c-0.8,6-1.5,11.9-2.3,17.9c-1.1,8.3-2.1,16.5-3.2,24.8c-0.5,4-1,7.9-1.6,11.9c-0.7,5.1-1.4,10.3-2,15.4c-1.5-1.8-3.2-3.5-4.7-5 c-6.3-6.2-14.7-11-24.4-14c-4.5-1.4-9.1-2.3-13.8-2.9c-4.5-0.5-9.5-0.6-15.3-0.2c-1.6,0.1-3.3,0.3-4.9,0.5c-3,0.4-5.9,1-8.8,1.7 c-5,1.3-9.6,3.2-14.2,5.7c-8.6,4.8-15.8,11.4-20.9,19.2c-4.6,7.2-7.4,16.2-8.3,26.7c-0.7,8.9,0.3,18.7,3.1,29.1 c1.2,4.6,2.6,8.6,4.2,12.3c1.5,3.5,3.5,7.1,6.4,11.3c2.1,3.1,4.6,6.2,8.1,9.9c3.2,3.4,6.6,6.7,10.2,9.6c5.9,4.9,12.8,9.3,21.1,13.7 c7.5,3.9,16.1,7,25.4,9.3c7.9,1.9,16.5,2.3,25.1,1.2l1-0.1c3.9-0.6,8.1-1.7,12.6-3.3c4.3-1.5,8.5-3.8,12.4-6.8 c6.3-4.8,11.7-11.2,16-19c1.6-3,2.9-6.4,3.7-10.3c0.5-2.1,0.7-3.8,0.7-5.5l0-0.9l0-0.8c0-0.2-0.1-0.4-0.1-0.6 c0.5-1.3,0.7-2.8,0.9-4.2c0.1-0.4,0.1-0.8,0.2-1.3c0.3-1.6,0.6-3.3,0.8-4.9c0.3-1.5,0.5-3,0.8-4.5c0.3-1.7,0.6-3.4,0.9-5 c1.4-8.4,2.7-16.7,3.6-22.9c1.1-7.2,2.2-14.4,3.2-21.6c1-6.9,2-13.8,3.1-20.7c1.6-10.7,3-21.7,4.3-32.3l0.2-1.5l0.6-4.9l0.6-5 c0.2-1.8,0.4-3.7,0.5-5.6l0.1-1.1c4.9,1.9,9.8,3.4,14.9,4.9c2.6,0.8,5.3,1.5,7.9,2.2c1.1,0.3,2.2,0.6,3.4,0.9 c7.3,2,14.7,4,21.1,5.7c5.2,1.4,10.4,2.6,15.5,3.9l3.5,0.8c1.9,0.5,3.8,0.9,5.7,1.3c1.4,0.3,2.7,0.6,4.1,0.9l2.6,0.6 c2.3,0.6,4.8,1.1,7.2,1.7l0.5,0.1c2,0.4,4.1,0.9,6.1,1.2c0.8,0.1,1.6,0.2,2.3,0.1c0.9-0.1,1.7-0.4,2.4-0.9c1.5-0.9,2.5-2.4,2.9-4.1 c0.4-1.9-0.1-4-1.4-5.6c0.4-1.3,0.4-2.6,0-3.7c-0.9-2.3-1.6-4.7-2.4-7c-0.3-0.9-0.6-1.9-0.9-2.8l-0.6-1.8c-0.8-2.4-1.6-4.8-2.3-7.2 c-1.2-3.7-2.3-7.4-3.5-11c-0.8-2.6-1.7-5.4-2.6-8.1c-1-2.8-1.8-4.9-2.8-6.8c-1.6-3.1-3.3-5-5.5-6c-1.5-0.6-3.1-1.1-4.7-1.4 c-0.5-0.1-0.9-0.2-1.4-0.4l-1.3-0.3c-1-0.3-2-0.5-3.1-0.8c-3.7-1-7.3-2-11-3c-6.9-1.9-13.8-3.8-20.7-5.8c-4.7-1.3-9.5-2.6-14.1-3.8 l-2.9-0.8c-0.6-0.2-1.2-0.3-1.8-0.5c-1.3-0.4-2.7-0.7-4-1c-3.4-0.8-6.9-1.5-10.3-2.3c-4.9-1.1-10.1-2.2-16.9-3.5 c-7.1-1.4-12.9-2.6-18.4-3.8C365.7,41,365,41,364.3,41.1L364.3,41.1L364.3,41.1z" fill="inherit"/><path d="M494.8,116.6c-0.4,0.1-0.8,0.3-1.1,0.7c-0.2,0.3-0.4,0.8-0.3,1.2c0.1,0.5,0.3,1,0.4,1.6 c0.1,0.6,0.2,1.1,0.4,1.7c0.3,1.1,0.5,2.2,0.6,3.3c0.1,0.9,1,1.5,1.9,1.4c0.9-0.1,1.5-1,1.4-1.9c-0.1-1.1-0.3-2.1-0.6-3.2 c-0.1-0.6-0.2-1.1-0.4-1.7c-0.1-0.6-0.3-1.1-0.4-1.7c-0.1-0.4-0.3-0.8-0.7-1.1c-0.3-0.2-0.6-0.3-1-0.3 C494.9,116.5,494.9,116.5,494.8,116.6L494.8,116.6L494.8,116.6z" fill="inherit"/><path d="M494.6,117.7c-0.8,0.3-1.3,1.4-0.9,2.2c0.5,1,0.8,2.1,1.2,3.1c0.3,1,0.5,2,0.6,3c0.1,0.9,1,1.5,1.9,1.4 c0.9-0.1,1.5-1,1.4-1.9c-0.2-1.2-0.4-2.4-0.8-3.6c-0.3-1.2-0.7-2.3-1.2-3.4c-0.3-0.6-0.9-1-1.5-1 C495,117.6,494.8,117.6,494.6,117.7L494.6,117.7L494.6,117.7z" fill="inherit"/><path d="M494.8,117.7c-0.8,0.3-1.3,1.4-0.9,2.2c0.4,0.8,0.7,1.5,1,2.4c0-0.1-0.1-0.3-0.1-0.4 c0.3,1.2,0.7,2.5,0.8,3.7c0,0.4,0.3,0.9,0.7,1.1c0.4,0.3,0.8,0.4,1.2,0.3c0.4-0.1,0.8-0.3,1.1-0.7c0.3-0.4,0.3-0.8,0.3-1.2 c0-1.1-0.3-2.1-0.6-3.1c-0.3-1.2-0.7-2.3-1.3-3.4c-0.2-0.4-0.5-0.7-0.9-0.9c-0.2-0.1-0.4-0.1-0.6-0.1 C495.3,117.5,495,117.6,494.8,117.7L494.8,117.7L494.8,117.7z" fill="inherit"/><path d="M494.7,118.9c-0.7,0.6-0.8,1.6-0.3,2.4c0,0.1,0.1,0.1,0.1,0.2c0.3,0.6,0.5,1.3,0.7,2 c0.2,0.6,0.3,1.3,0.4,1.9c0.1,0.8,0.2,1.6,0.2,2.4c0,0.4,0.3,0.9,0.7,1.1c0.4,0.3,0.8,0.4,1.2,0.3c0.4-0.1,0.8-0.3,1.1-0.7 c0.3-0.4,0.3-0.8,0.3-1.2c0-1.2-0.1-2.4-0.4-3.6c-0.1-0.6-0.3-1.3-0.5-1.9c-0.1-0.3-0.2-0.6-0.3-0.8c-0.2-0.6-0.5-1.2-0.9-1.7 c-0.3-0.4-0.8-0.6-1.3-0.6C495.4,118.6,495,118.7,494.7,118.9L494.7,118.9L494.7,118.9z M495.2,123.2c0,0,0,0.1,0,0.1 C495.2,123.3,495.2,123.3,495.2,123.2L495.2,123.2L495.2,123.2z" fill="inherit"/></g><g id="change2_3"><path d="M171.3,152.2c-0.2,0-0.4,0-0.7,0.1c-0.9,0.1-1.9,0.2-2.8,0.4c-4.4,0.7-8.7,2.4-12.6,4.1 c-7.1,2.9-14.5,5.8-21,8.3c-5,1.9-10.3,4-15.4,6c-2.2,0.9-4.3,1.7-6.5,2.6c-4.7,1.9-8.9,3.5-13.1,5.3l-10.8,4.6l-10.8,4.6 c-4.3,1.8-8.6,3.8-12.8,5.6l-0.3,0.1c-1.7,0.7-3.3,1.5-5,2.2c-5.4,2.4-10.9,4.9-16.3,7.3c-12,5.4-23.8,10.8-35.4,16.7 c-2.6,1.3-3.5,4.4-3,6.8c-0.3,1.1-0.2,2.2,0.1,3.1c1.4,4,2.9,8,4.3,12c3.4,9.4,6.9,19.2,10.2,29l0.8,2.2c1.6,4.8,3.5,10.3,5.1,15.7 l4.1,13.6l2.9,9.4c1.4,4.6,2.8,9.4,4.1,14l0.3,1l0.2,0.8c0.6,2.1,1.2,4.2,1.8,6.4c1.6,5.4,3.2,10.8,4.8,16.2 c4.2,14.3,8.5,28.9,13.1,44.7c1,3.3,2,6.7,3.1,10l0.1,0.3c0.5,1.5,1,3.1,1.4,4.6l2.3,7.3l0.1,0.2c0.5,1.6,1.1,3.2,1.6,4.7l0.2,0.4 c0.3,0.9,0.6,1.7,0.9,2.6c4.1,12,7.9,22.4,11.5,31.8c0.5,1.4,1.3,2.8,2.9,3.8c0.5,0.3,1.1,0.5,1.6,0.7c0.8,1.2,1.7,2.3,2.7,3.4 c1.4,1.6,3.1,2.9,4.8,4.1l0.2,0.2c1.8,1.3,3.9,2.3,6.4,3.3c2.5,1,5,1.8,7.8,2.3c2.5,0.5,5.2,0.7,8.2,0.7c1.8,0,3.8-0.1,5.9-0.3 c2.3-0.2,4.7-0.5,7.6-1c2.9-0.5,5.7-1.4,7.8-2.1c4.4-1.6,8.6-3.8,12.6-6.6c3.9-2.8,7.8-6.2,11.4-10.1c3.2-3.4,5.9-7.1,8.7-10.9 c3.2-4.3,5.8-8.4,8-12.5c2-3.8,3.8-8,5.5-13c1.5-4.4,2.6-9.3,3.2-15.2c0.6-5.2,0.4-10.4,0.1-14.4c-0.3-5-1.1-10.3-2.2-15.6 c-0.9-4.1-2.2-8.2-4-13.1c-2-5.1-4.1-9.5-6.6-13.6c-1.3-2.2-2.8-4.2-4.7-6.6c-1.9-2.4-3.7-4.5-5.7-6.5c-3.9-3.9-8.4-7.1-13.5-9.5 c-2.4-1.1-5-2.1-7.7-2.9c-2.6-0.7-5.5-1.2-9.1-1.4c-0.5,0-0.9,0-1.4,0c-2,0-4.2,0.2-7,0.6c-3.1,0.5-5.9,1.2-8.6,2.2 c-5.5,2.1-10.6,5.3-15.1,9.4c-2.1,1.9-3.9,4.1-5.2,5.8c-2.1,2.6-3.7,5.1-5.1,7.7c-0.2,0.4-0.4,0.8-0.6,1.2 c-2.2-6.8-4-12.5-5.5-17.8l-2.1-7.1l-2.1-7.2l-0.3-1c-0.4-1.5-0.9-3-1.3-4.5l-5.3-20.9l-1.1-4.2c-1.2-4.7-2.6-9.7-3.7-13.6 l-0.4-1.5c-0.4-1.6-0.9-3.2-1.3-4.8c-1-3.7-1.9-6.8-2.8-9.8c1.6-0.8,3.2-1.6,4.8-2.3l2.5-1.2c4.5-2.2,9-4.3,13.5-6.4 c1.6-0.8,3.3-1.5,4.9-2.3c3.6-1.7,7.3-3.5,11-5.1c5.8-2.6,11.7-5.2,17.5-7.8l11.1-4.3l4.2-1.6c3.5-1.3,7-2.7,10.5-3.9l0.3-0.1 l3.4-1.3l2.1-0.8l0.8-0.3c1.8-0.6,3.5-1.3,5.3-2c1.1,3,2.3,6,3.4,9l1.4,3.7c3.4,9,6.9,18.4,10,26.7c1.6,4.3,3.2,8.6,4.8,12.9 c3.4,9.1,6.8,18.6,10.1,28.3c1.2,3.6,2.5,7.1,3.7,10.6l0.9,2.5c0.6,1.6,1.1,3.2,1.7,4.8l0.1,0.3c1.1,3.2,2.2,6.6,3.5,9.8 c0.5,1.2,0.9,2,1.6,2.7c1.4,11.5,4.7,22.4,9.7,32.4c1.8,3.5,4.1,7,7.5,11.3c1.4,1.8,2.8,3.4,4.3,5c1.7,1.8,3.5,3.5,5.6,5.2 c1.7,1.5,3.6,2.9,5.6,4.3c2,1.3,4.2,2.2,6.4,3.1c1.8,0.7,3.8,1.2,6.5,1.6c1.7,0.3,3.3,0.4,4.8,0.4c1.2,0,2.2-0.1,3.3-0.2 c2.4-0.3,4.7-0.8,6.9-1.4c2.3-0.7,4.6-1.7,6.7-2.7c3.8-1.8,7.4-4.4,11.8-8.6c2.9-2.8,5.9-6.2,9.2-10.6c3-3.9,5.8-8,8.6-12.7 c2.3-3.7,4.5-7.8,6.7-12.6c2.5-5.3,4.4-10.1,5.9-14.5c1.6-4.8,2.3-9.8,2.8-14.1c0.7-5.4,0.7-10.9,0.7-15.1c0-6.4-0.7-13.3-2.3-22.2 c-0.7-3.9-1.3-7-2.1-9.9c-0.8-2.8-1.9-5.8-3.7-9.6c-1.3-2.8-2.9-5.4-4.8-7.8c-1.1-1.5-2-2.5-3-3.5c-1.3-1.3-2.8-2.4-4.3-3.4 c-1.1-0.8-2.3-1.3-3.6-1.9c-1.7-0.8-3.5-1.5-5.4-2c-2.5-0.7-5.3-1.1-8.3-1.1c-1,0-2.1,0-3.3,0.1c-7,0.6-14,2.9-21,6.6 c-3.1,1.7-5.9,3.8-8.5,5.9c-2.3,1.8-4.6,4-7.2,6.7c-2.6,2.7-4.8,5.7-6.7,8.3c-2,2.7-3.8,5.6-5.6,8.9l-0.2,0.4l-0.1-0.4 c-0.5-1.7-1-3.3-1.5-5c-2-7.1-4.2-14-6.3-20.6c-4.5-14.2-8.3-26.7-11.7-38.1c-0.9-3.2-1.9-6.3-2.8-9.5l-0.4-1.2 c-1.8-6.4-3.9-13.6-6-20.5c-1.8-5.8-3.9-12.4-7.1-18.4c-1.7-3.2-3.7-5.2-5.9-6.2c-1-0.6-2.1-0.9-3.2-0.9 C171.6,152.2,171.4,152.2,171.3,152.2L171.3,152.2L171.3,152.2z" fill="#FFE000"/></g><g fill="#ED213B" id="change3_3"><path d="M61.3,241.7c-1.2,0.3-2.2,1.1-2.8,2.2c-0.7,1.2-0.7,2.4-0.5,3.7c0.7,3.4,1.5,6.9,2.3,10.3 c0.8,3.3,1.6,6.7,2.4,10c0.4,1.5,0.8,2.9,1.2,4.4c1,3.5,2.1,7.1,3.1,10.6c2.7,9.2,5.3,18.3,8.1,27.5c1.2,4,2.4,7.9,3.5,11.9 c1,3.4,2.2,6.7,3.4,10.1c1,2.9,2.1,5.8,3.2,8.8c1.3,3.3,2.5,6.7,3.7,10c0.4,1.2,1,2.2,2.2,2.8c1.1,0.6,2.4,0.8,3.7,0.5 c1.2-0.3,2.2-1.1,2.8-2.2c0.6-1,0.9-2.5,0.5-3.7c-1.8-4.8-3.6-9.5-5.3-14.3c-0.8-2.3-1.7-4.6-2.5-6.9c-0.8-2.5-1.8-5-2.5-7.6 c-3.2-10.8-6.4-21.6-9.6-32.4c-1.9-6.6-3.9-13.3-5.9-19.9c-0.8-2.7-1.4-5.4-2-8.1c-0.6-2.3-1.1-4.6-1.7-6.9 c-0.6-2.5-1.1-4.9-1.6-7.4c-0.4-2.1-2.6-3.5-4.6-3.5C62.1,241.6,61.7,241.6,61.3,241.7L61.3,241.7L61.3,241.7z" fill="inherit"/><path d="M130.5,318.9c-2.8,0.4-5.4,1-8.1,1.9c-2.8,0.9-5.5,2.1-8,3.5c-2.6,1.4-5,3.1-7.3,4.9 c-4.3,3.4-7.8,7.7-11,12.1c-3.2,4.4-5.7,9.1-7.9,14c-3,6.6-5.5,13.4-7.5,20.4c-0.7,2.5,0.8,5.2,3.3,5.8c2.5,0.7,5.1-0.8,5.8-3.3 c1.5-5.3,3.3-10.5,5.4-15.5c1.4-3.2,2.9-6.4,4.5-9.5c1.6-3,3.5-5.9,5.6-8.6c2.6-3.2,5.4-6.3,8.6-8.9c2.7-2,5.5-3.6,8.6-5 c3.2-1.3,6.5-2.2,9.8-2.7c3.2-0.4,6.3-0.5,9.5-0.2c1.8,0.3,3.6,0.8,5.3,1.5c2.2,1,4.3,2.2,6.3,3.6c2.3,1.9,4.3,4,6.1,6.3 c1.5,2,2.8,4,4.1,6.1c1.5,2.5,2.8,5.2,4,7.9c1.4,3.5,2.6,7,3.6,10.6c1,3.7,1.6,7.5,2.2,11.3c1,8,1.1,16.1,0.1,24.1 c-0.4,2.7-0.9,5.4-1.7,8c-0.7,2.7-1.7,5.4-2.8,8c-1.4,3.2-2.9,6.3-4.7,9.3c-1.9,3.3-4.1,6.4-6.3,9.4c-4.1,5.1-8.6,9.7-13.8,13.8 c-4.2,3.1-8.7,5.9-13.4,8c-2.9,1.1-5.9,2-9,2.5c-0.8,0.1-1.6,0.1-2.4,0.1c-2.6,0-4.7,2.1-4.7,4.7c0,2.6,2.2,4.8,4.7,4.7 c5.7-0.1,11.1-1.7,16.3-4c3-1.3,5.9-3,8.7-4.8c3.3-2,6.3-4.4,9.2-6.9c5.6-4.7,10.4-10.4,14.6-16.3c2-2.8,3.9-5.8,5.6-8.9 c1.9-3.4,3.4-7,4.9-10.7c2.8-7,4.1-14.4,4.7-22c0.6-7.7,0-15.3-1.1-23c-1.1-7.1-2.9-14-5.6-20.7c-1.3-3.3-2.8-6.5-4.6-9.6 c-1.8-3.2-4-6.2-6.3-9.1c-3.3-4.1-7.3-7.5-11.9-10c-2.2-1.2-4.6-2.2-7-2.9c-2.8-0.8-5.8-1.1-8.7-1.1c-0.1,0-0.3,0-0.4,0 C135.6,318.3,133,318.5,130.5,318.9L130.5,318.9L130.5,318.9z" fill="inherit"/><path d="M266.2,237.6c-2.9,0.3-5.9,0.8-8.7,1.6c-2.7,0.8-5.3,1.9-7.9,3.1c-2.7,1.2-5.3,2.6-7.8,4.1 c-4.8,2.9-9.4,6.5-13.5,10.4c-4,3.8-7.4,8.1-10.4,12.7c-3.1,4.6-5.6,9.6-7.7,14.8c-1,2.6-1.9,5.2-2.5,8c-0.6,2.8-0.9,5.7-1.1,8.6 c-0.1,1.2,0.6,2.6,1.4,3.4c0.9,0.9,2.1,1.3,3.3,1.3c1.3,0,2.5-0.5,3.4-1.4c0.9-0.9,1.2-2,1.3-3.3c0.1-0.7,0.1-1.4,0.2-2.2 c0.3-1.9,0.6-3.8,1-5.6c0.5-2,1.2-4,2-5.9c2.4-5.7,5.4-11,9-16c3.4-4.5,7.4-8.4,11.7-12c4.8-3.7,9.9-6.8,15.5-9.2 c1.8-0.7,3.6-1.4,5.4-1.9c1.6-0.4,3.2-0.7,4.8-1c1.9-0.2,3.8-0.3,5.7-0.1c1.5,0.3,2.9,0.7,4.4,1.2c1.8,0.8,3.4,1.7,5,2.8 c1.8,1.5,3.4,3.2,4.9,5c2.8,3.8,5.2,7.8,7.1,12.1c2.4,5.9,4.2,11.9,5.2,18.2c0.4,3.2,0.5,6.5,0.5,9.8c-0.1,3.5-0.4,7-0.9,10.5 c-1.4,9.9-4,19.7-7.7,29c-2.8,6.5-6.3,12.7-10.5,18.4c-2.2,2.8-4.5,5.5-6.9,8.1c-2.5,2.8-5.2,5.4-8.1,7.8c-3.9,3-8,5.5-12.5,7.5 c-1.2,0.5-2.4,0.9-3.7,1.3c-1.5,0.5-2.9,0.9-4.4,1.3c-2.5,0.7-4,3.4-3.3,5.8c0.7,2.5,3.3,4,5.8,3.3c2.6-0.7,5.2-1.5,7.7-2.5 c6.1-2.4,11.8-5.8,16.8-9.9c5.4-4.4,10.1-9.6,14.5-15.1c4.5-5.7,8.4-11.9,11.5-18.5c3.2-6.8,5.5-14,7.4-21.3 c1.9-7.3,3-14.8,3.5-22.3c0.3-3.5,0.3-7.1,0-10.6c-0.3-3.9-1-7.9-1.9-11.7c-0.8-3.4-1.9-6.7-3.2-10c-1.4-3.6-3.1-7.2-5-10.6 c-1.2-2.1-2.6-4-4.1-5.9c-1.7-2.2-3.5-4.2-5.6-6.1c-3.9-3.4-8.9-5.8-14-6.8c-1.5-0.3-3.1-0.4-4.7-0.4 C268.3,237.4,267.3,237.5,266.2,237.6L266.2,237.6L266.2,237.6z M266.7,247c-0.2,0-0.4,0.1-0.5,0.1C266.3,247,266.5,247,266.7,247 L266.7,247L266.7,247z M286,256.3c0.1,0.1,0.1,0.2,0.2,0.2C286.1,256.5,286,256.4,286,256.3L286,256.3L286,256.3z" fill="inherit"/><path d="M172.6,155.9c-1.2,0.3-2.2,1.1-2.9,2.2c-0.6,1-0.9,2.5-0.4,3.6c2.1,5.6,4.3,11.2,6.4,16.8 c1.9,4.9,3.4,9.8,5.1,14.7c1.6,4.7,3,9.5,4.5,14.3c0.8,2.5,1.7,5,2.5,7.5c0.7,2.2,1.5,4.5,2.2,6.7c3.4,9.8,6.9,19.5,10.4,29.3 c3.5,9.8,6.9,19.7,10.1,29.6c0.2,0.5,0.3,1.1,0.5,1.6c0.8,2.5,3.3,4,5.8,3.3c2.4-0.7,4.1-3.4,3.3-5.8c-1.6-4.9-3.2-9.7-4.9-14.6 c-1.6-4.7-3.2-9.4-4.8-14.1c-3.7-10.3-7.3-20.6-11-30.9c-1.7-4.8-3.3-9.8-4.9-14.6c-1.6-4.8-3.1-9.7-4.6-14.6 c-0.7-2.3-1.5-4.6-2.3-6.8c-0.7-2.1-1.4-4.3-2.2-6.4c-2-5.3-4.1-10.6-6.1-15.9c-0.4-0.9-0.7-1.8-1-2.8c-0.4-1.2-1.1-2.2-2.2-2.9 c-0.7-0.4-1.5-0.6-2.3-0.6C173.5,155.7,173,155.8,172.6,155.9L172.6,155.9L172.6,155.9z" fill="inherit"/><path d="M141.8,207.4c-3.1,1.8-6.5,3.2-9.8,4.6c-3.3,1.5-6.6,2.9-9.9,4.3c-9.3,3.8-18.6,7.7-27.9,11.6 c-10.4,4.3-20.8,8.6-31.1,13c-1.2,0.5-2.4,1.1-3.7,1.6c-1.1,0.5-1.9,1.8-2.2,2.8c-0.3,1.2-0.2,2.6,0.5,3.7c0.6,1.1,1.7,1.9,2.8,2.2 c0.4,0.1,0.8,0.1,1.3,0.2c0.9,0,1.7-0.2,2.4-0.6c3.9-1.7,7.9-3.4,11.8-5.1c9.1-3.8,18.2-7.5,27.3-11.4c5.1-2.1,10.3-4.3,15.4-6.4 c5-2.1,10.1-4.1,15.1-6.3c2.3-1,4.5-2,6.8-3.1c2-0.9,4-1.8,5.9-2.9c2.2-1.3,3-4.3,1.7-6.5c-0.9-1.5-2.5-2.3-4.1-2.3 C143.3,206.8,142.5,207,141.8,207.4L141.8,207.4L141.8,207.4z" fill="inherit"/></g><g><g id="change3_1"><path d="M346.9,162c-2.4,1.1-3.3,4-2.2,6.3c3.3,7,6.5,13.9,9.1,21.2c0.5,1.7,1,3.3,1.4,5c0.3,1.2,0.9,2.3,2,3 c1,0.7,2.3,1,3.6,0.7c2.4-0.5,4.4-3,3.8-5.5c-1.2-4.9-2.9-9.6-4.9-14.2c-2.1-4.8-4.3-9.6-6.5-14.4c-0.8-1.7-2.5-2.6-4.3-2.6 C348.2,161.6,347.5,161.7,346.9,162L346.9,162L346.9,162z" fill="#ED213B"/></g><g id="change3_2"><path d="M397.2,109.2c-0.9,0.8-1.5,2-1.6,3.3c-0.1,1.2,0.3,2.5,1.2,3.4c0.9,1,2,1.4,3.3,1.6c2.3,0.4,4.6,0.8,7,1.2 c10.2,2.1,20.3,4.3,30.4,6.6c4.5,1,9,2.2,13.5,3.2c5.3,1.2,10.5,2.4,15.7,3.6c4,1,8,1.9,11.9,2.8c4.2,0.9,8.3,1.9,12.5,2.7 c1.2,0.2,2.6-0.4,3.4-1.2c0.9-0.8,1.5-2,1.6-3.3c0.1-1.3-0.3-2.5-1.2-3.4c-0.3-0.3-0.6-0.6-1-0.8c-0.7-0.5-1.5-0.7-2.3-0.8 c-0.1,0-0.2,0-0.3,0c-4.7-1-9.4-2.1-14.1-3.1c-5.1-1.1-10.3-2.4-15.4-3.6c-4.7-1.1-9.4-2.1-14.1-3.2c-5.2-1.2-10.4-2.4-15.6-3.6 c-5.2-1.2-10.4-2.2-15.6-3.3c-5.3-1.2-10.6-2.2-16-3.1c-0.2,0-0.3,0-0.5,0C399.1,108,398,108.5,397.2,109.2L397.2,109.2 L397.2,109.2z" fill="#ED213B"/></g><g id="change1_2"><path d="M371.2,304.2c-0.7,0-1.4,0.1-2.1,0.3c-0.2,0.1-0.5,0.2-0.7,0.3c-1.2,0.3-2.2,0.9-3,1.8 c-1.1,1.1-2.1,3.1-1.9,4.7c0.4,3.2,0.9,6.9,0.6,10.6c-0.4,2.3-1,4.5-1.8,6.7c-1.6,3.6-3.8,7.3-6.7,11.3 c-4.5,5.8-9.8,11.2-16.2,16.5l-1.7,1.3l-2.6,2c-1.3,1-2.5,1.8-4,2.8l-0.8,0.5c-2.5,1.7-5.2,3.1-7.5,4.3l-0.3,0.2 c-0.8,0.4-1.5,0.7-2.1,1.1c-1.9,1-3.3,3.4-3.3,5.8c0,1.2,0.3,2.3,1,3.4c0.6,1,1.4,1.8,2.4,2.4l0.4,0.2c0.9,0.4,1.7,0.7,2.7,0.9 c0.8,0.1,1.6,0.2,2.3,0.3l0.5,0.1c2.3,0.3,4.2,0.7,5.9,1.2c2,0.5,4,1.2,5.8,1.9c2.9,1.3,5.4,2.7,7.8,4.4c1.6,1.4,3.2,2.9,4.7,4.7 c1.8,2.4,3.3,5,4.7,8c1.2,3.1,2.2,6.3,3.1,9.9l0,0.3l0.1,0.9l0.2,1.8c0.3,3.3,0.7,6.8,1.3,10.2c0,0.2,0.1,0.4,0.1,0.5 c0.1,0.5,0.1,1.1,0.2,1.7c0.3,1.7,1.8,3.2,3.1,4c0.8,0.5,1.7,0.7,2.6,0.8c0.9,0.5,1.9,0.8,3,0.8c0.1,0,0.2,0,0.3,0 c1.8,0,3.5-0.7,4.7-2l1-1.4c0.6-1,0.9-2.2,0.9-3.4c0.1-0.7,0.1-1.4,0.1-2.1c0-0.5,0-0.9,0-1.3c0.1-1.1,0.1-2.2,0.2-3.3 c0.2-2,0.4-4,0.6-5.9c0.7-4.6,1.7-8.3,2.9-11.7c1.3-3,2.9-5.7,4.8-8.4c2.5-3.1,5.4-6,8.9-8.9c3.8-2.9,7.4-5.1,11.1-6.8 c2.6-1,5.2-1.8,7.9-2.3c0.4,0,0.8-0.1,1.2-0.1l0.4,0l1-0.1c1-0.1,2-0.2,3-0.5c2.3-0.7,4-2.5,4.6-4.7c0.7-2.6-0.3-6.2-3.1-7.5 c-1.7-0.8-3.6-1.2-5.3-1.6l-0.4-0.1c-0.6-0.1-1.2-0.3-1.7-0.4c-2.3-0.6-4.7-1.3-7.4-2.3c-2.6-1.1-5-2.5-7.2-4.1 c-2.3-1.9-4.5-4.1-6.5-6.6c-2.7-3.5-5-7.4-6.9-11.4c-2.3-5.7-3.7-11.8-4.8-17.1c-0.8-3.7-1.4-6.7-1.9-9.4c-0.3-1.7-1.8-3.2-3.1-3.9 C373.3,304.6,372.3,304.3,371.2,304.2L371.2,304.2L371.2,304.2z" fill="#FF5F91"/></g><g id="change2_2"><path d="M209.9,59.9c-0.6,0-1.1,0-1.7,0.2c-0.2,0.1-0.4,0.1-0.6,0.2c-0.9,0.2-1.7,0.7-2.4,1.4 c-0.8,0.9-1.7,2.4-1.5,3.7c0.3,2.5,0.7,5.4,0.4,8.3c-0.3,1.8-0.8,3.6-1.4,5.3c-1.3,2.8-3,5.7-5.3,8.8c-3.6,4.5-7.7,8.8-12.7,12.9 l-1.3,1l-2,1.5c-1,0.8-2,1.4-3.1,2.2l-0.6,0.4c-1.9,1.3-4.1,2.4-5.9,3.4l-0.3,0.1c-0.6,0.3-1.1,0.6-1.7,0.9 c-1.5,0.8-2.6,2.7-2.6,4.5c0,0.9,0.3,1.8,0.7,2.6c0.5,0.8,1.1,1.4,1.9,1.9l0.3,0.1c0.7,0.3,1.4,0.6,2.1,0.7 c0.6,0.1,1.2,0.2,1.8,0.2l0.4,0c1.8,0.3,3.3,0.6,4.6,0.9c1.6,0.4,3.1,0.9,4.5,1.5c2.3,1,4.3,2.1,6.2,3.5c1.3,1.1,2.5,2.3,3.7,3.7 c1.4,1.9,2.6,3.9,3.7,6.3c0.9,2.4,1.7,4.9,2.4,7.8l0,0.2l0.1,0.7l0.1,1.4c0.2,2.6,0.5,5.4,1,8c0,0.1,0.1,0.3,0.1,0.4 c0,0.4,0.1,0.9,0.2,1.3c0.2,1.3,1.4,2.5,2.4,3.1c0.6,0.4,1.3,0.6,2,0.7c0.7,0.4,1.5,0.6,2.3,0.7c0.1,0,0.2,0,0.3,0 c1.4,0,2.7-0.6,3.7-1.6l0.8-1.1c0.5-0.8,0.7-1.7,0.7-2.7c0.1-0.5,0.1-1.1,0.1-1.7c0-0.4,0-0.7,0-1c0-0.9,0.1-1.7,0.2-2.6 c0.1-1.6,0.3-3.1,0.5-4.7c0.6-3.6,1.3-6.5,2.3-9.2c1.1-2.3,2.3-4.5,3.8-6.6c2-2.5,4.2-4.7,7-7c3-2.3,5.9-4,8.7-5.4 c2-0.8,4.1-1.4,6.2-1.8c0.3,0,0.6-0.1,0.9-0.1l0.3,0l0.8-0.1c0.8-0.1,1.6-0.1,2.3-0.4c1.8-0.6,3.2-1.9,3.6-3.7 c0.5-2-0.3-4.9-2.5-5.9c-1.3-0.6-2.8-1-4.2-1.3l-0.3-0.1c-0.5-0.1-0.9-0.2-1.3-0.3c-1.8-0.4-3.7-1-5.8-1.8c-2-0.9-3.9-1.9-5.7-3.2 c-1.8-1.5-3.5-3.2-5.1-5.2c-2.1-2.8-3.9-5.8-5.4-9c-1.8-4.5-2.9-9.3-3.8-13.4c-0.6-2.9-1.1-5.3-1.5-7.4c-0.2-1.3-1.4-2.5-2.4-3.1 C211.6,60.2,210.8,60,209.9,59.9L209.9,59.9L209.9,59.9z" fill="#FFE000"/></g><g fill="#FFE000" id="change2_1"><path d="M431.6,218.7c-0.1,0-0.2,0-0.4,0c-3.9,0-7.2,3.2-7.2,7.1c-0.1,11.2-0.2,22.4-0.4,33.7 c0,3.9,3.2,7.2,7.1,7.2c3.9,0,7.2-3.2,7.2-7.1c0.1-11.2,0.2-22.4,0.4-33.7C438.4,222.1,435.4,218.9,431.6,218.7z" fill="inherit"/><path d="M416.5,265.7c-0.1,0-0.3,0-0.4,0c-4.3,0-8.6,0-13,0c-4.9,0.1-9.8,0.5-14.7,1.1 c-0.6,0.1-1.3,0.2-1.9,0.2c-1.2,0.3-2.3,0.9-3.2,1.8c-1.3,1.3-2.1,3.1-2.2,5c0,1.9,0.7,3.7,2,5.1c1.2,1.2,3.3,2.3,5,2.1 c4.7-0.5,9.3-0.9,14-1c4.5-0.1,9.1-0.1,13.6-0.1c3.9,0,7.2-3.2,7.2-7.1C423.2,269.1,420.2,265.9,416.5,265.7z" fill="inherit"/><path d="M480.7,268.7c-0.8-3.1-3.5-5.1-6.5-5.3c-0.7,0-1.5,0-2.2,0.2c-0.9,0.2-1.8,0.4-2.7,0.6 c-3.5,0.3-7.1,0.3-10.6,0.4c-4.3,0.1-8.5,0.1-12.8,0c-3.9,0-7.2,3.2-7.2,7.1c0,3.9,3.2,7.2,7.1,7.2c4.8,0.1,9.7,0.1,14.5,0 c5.1-0.1,10.3-0.2,15.3-1.4C479.4,276.6,481.7,272.4,480.7,268.7z" fill="inherit"/><path d="M434.6,284.2c-1.2-1.3-2.9-2-4.7-2.1c-0.1,0-0.2,0-0.3,0c-1.9,0-3.7,0.7-5.1,2 c-1.3,1.2-2.3,3.2-2.1,5c0.5,6.4,0.5,12.8,0.5,19.2c0,5.9,0,11.9-0.5,17.8c-0.3,3.9,3.4,7.2,7.1,7.2c1.9,0,3.7-0.7,5.1-2 c1.4-1.4,2-3.1,2.1-5c0.5-5.7,0.5-11.4,0.5-17.2c0-6.6,0-13.2-0.5-19.8C436.5,287.3,436,285.6,434.6,284.2z" fill="inherit"/></g></g></svg>