<?xml version="1.0" encoding="UTF-8" standalone="no"?><svg xmlns="http://www.w3.org/2000/svg" xmlns:xlink="http://www.w3.org/1999/xlink" fill="#000000" height="747.2" preserveAspectRatio="xMidYMid meet" version="1" viewBox="-1.3 -39.8 2029.9 747.2" width="2029.9" zoomAndPan="magnify"><g id="change1_1"><path d="M1032.4,24.3c0,0-830-64.1-947.3,66.2c0,0-70.4,44.6-70.4,145.6s0,246.5,0,246.5S19.5,644,169.6,655.8 s750,4.9,906.1,12.7s565.7,38.9,723.1-3.7c157.4-42.7,209-84.7,213.7-195.1s-9.1-216-9.1-216s-7.7-187.8-224.1-203.1 S1032.4,24.3,1032.4,24.3z" fill="#7ed957"/></g><g id="change2_1"><path d="M2012.6,469.7c1-23.4,1.2-46.6,0.8-68.6c-16.3,43.1-43.8,84.3-90,105c-121.7,54.4-309.9,56.6-520,42.4 c-210.1-14.2-1267.8-22-1267.8-22s-64.7,24.5-120.9-94.5c0,30.5,0,50.7,0,50.7S19.5,644,169.6,655.8s750,4.9,906.1,12.7 s565.7,38.9,723.1-3.7C1956.3,622.1,2007.9,580,2012.6,469.7z" fill="#38b6ff"/></g><g id="change3_1"><path d="M2019,298.2c-0.1-19.3-1-36.9-2.3-50.7c-14.2-144.7-117.2-196.1-248.7-212 c-120.1-15.4-240.6-13.8-361.6-14.7C1227.5,19,1049,14.5,870.4,5.5C703.9,0.1,537.2-3,370.7,4.2c-100.4,6-213,10.1-293.1,78.7 C12.3,132-1.3,207.9,0.1,285c0.7,29.3,0.3,59.7,2.1,89.6c0.5,8.4,1.1,16.7,1.1,25.1c0,1.8,0,3.6,0,5.4c-0.3,2.9-0.3,5.8,0,8.5 c2.8,98,15.2,224,130.5,248c56.2,10.4,113.8,4.1,170.7,5.3c1.8,0.5,3.7,0.8,5.9,0.7c45-0.1,90-1.9,135-2.4 c145.8,1.7,291.7,2.7,437.4,9.5c50.6,2.7,101.5,2,152.3,2c0.8,0.4,1.8,0.7,2.8,0.8c68.2,5.6,136.3,12.8,204.7,16.3 c0.2,0,0.4,0,0.6,0c1.2,0.1,2.5,0.1,3.7,0.2c3.1,0.6,5.9,0.4,8.3-0.2c0.6,0,1.1,0,1.7,0c3.4,1.1,6.7,1,9.5,0c12,0.1,24,0.2,36,0.5 c51.3,1,104.9,5.3,156.6,5.6c22.4-0.9,46.7-1.4,72.2-2c141.4-3.1,321-7.2,425.1-75.9c29-23.5,53.4-54.2,61.1-91.4 c7.3-44.5,11.2-90.1,10.9-135.3C2026.6,380.5,2027.6,324.9,2019,298.2z M26.2,269.7c-1.1-68,14.4-130.3,72.2-171.8 C177,35.7,283.8,34,379.6,28.4c131.5-5.1,263.4-5,395-2c121,2.1,241.8,9.9,362.7,14c163.6,4,327.3,3.3,490.8,9.5 c121.4,8,303.1,4.1,350.7,142.2c10.1,31.2,14,63.4,14.5,95.8c-0.1,0.1-0.2,0.2-0.3,0.3c0.1,1.9,0.2,3.7,0.3,5.6 c0,1.1,0.1,2.2,0.1,3.3c0,0.1,0,0.2,0,0.3c0,0.5,0,1.1,0,1.6c0,0.1,0,0.2,0,0.2c0.1,0.9,0.1,1.7,0.2,2.6c0,0.2,0,0.5,0,0.7 c0,0,0,0,0,0c0,0.2-0.1,0.5-0.2,0.7c-0.4,31.7-3.5,63.6-6.6,95c-13.9,122.3-179.6,138.9-277.8,149c-130.4,7.7-260.2-11.3-390.3-14.2 c-17.5-0.3-34.9-0.2-52.2,0c-5.1-1.1-10.7-0.8-15.9-1.3c-9.6-0.4-19.2-0.6-28.8-0.8c-25-5.2-64.2-2.5-95-1.2 c-7.4-1.4-16.7-0.9-25.5-0.5c-2.9,0.1-5.7,0.3-8.4,0.4c-0.7,0-1.4,0-2,0c-3.9,0.1-7.4-0.1-10.2-0.6c-41.5-0.3-83-1.2-124.5-2.4 c-213.1-7.8-426.3,0.3-639.5-1.1c-60.6-1.3-121.4-1.5-181.8-7.7c-51-5.4-84.3-23-97.1-75.6C24.2,386,25.8,327.3,26.2,269.7z M106.3,626.6c-50.7-25-65.7-77.9-72.1-131.5c7.3,10.4,16.4,18.5,26.8,24.9c9,23,21.1,44.6,32.3,66.5c8.4,15.6,16.9,31.2,26.7,46 C115.4,630.9,110.8,628.9,106.3,626.6z M132.5,636.6c-6.4-9.1-12.3-18.6-17.8-28.3c-8.2-14.3-15.6-29.1-23.1-43.7 c-6.7-12.5-13-25.2-18.8-38.1c11.2,5.2,23.3,8.9,35.7,11.5c9.9,18.1,19.5,36.4,29.8,54.4c9.8,17.1,19.7,34.4,31.4,50.3 C157.1,641.6,144.6,639.9,132.5,636.6z M179.7,643.1c0,0-0.1-0.1-0.1-0.1c-10.4-13.9-19.3-28.8-28.1-43.8 c-11.4-19.5-21.9-39.5-32.7-59.4c9.7,1.6,19.4,2.6,28.9,3.4c1.8,0.1,3.5,0.3,5.3,0.4c9.7,19.2,21.7,37.3,32.9,55.7 c9.5,15.2,19.7,29.9,30.9,43.8C204.5,643.4,192.1,643.6,179.7,643.1z M226.8,643c-8.8-10.6-16.8-21.9-24.4-33.3 c-13.4-21.7-27.3-43.2-39.7-65.4c10,0.7,20,1.3,30.1,1.8c4.2,8.1,9.1,15.8,13.9,23.5c15.3,24.9,30.7,49.8,48.4,73.1 C245.6,642.8,236.2,642.9,226.8,643z M297.6,642.5c-11.1,0-22.1,0-33.2,0.1c-8.1-11-16.1-22.1-23.7-33.5 c-9.1-13.6-17.5-27.6-26.2-41.4c-4.4-7-9-14-13.1-21.2c12.6,0.6,25.1,1,37.7,1.4c10.2,18.9,20.8,37.6,32.7,55.6 c8.8,13.1,17.6,26.3,26.8,39.2C298.3,642.6,298,642.6,297.6,642.5z M316.5,642.4c-0.3,0-0.7,0.1-1,0.2c-2.4-0.1-4.8,0-7.2,0.1 c-7.9-11.2-15.8-22.4-23.5-33.8c-13.5-19.5-25.3-40-36.6-60.8c8.3,0.2,16.6,0.4,24.9,0.5c0.8,1.4,1.6,2.8,2.2,4.1 c5.3,9.3,11.1,18.3,16.7,27.4c13.5,21.8,29.3,42.1,45.8,61.7C330.8,641.9,323.6,642.1,316.5,642.4z M347.5,641.6 c-7.8-9.4-15.3-19.1-22.9-28.7c-10.9-13.8-20.6-28.3-29.7-43.3c-4.3-6.9-8.8-13.7-12.7-20.8c10.7,0.2,21.4,0.3,32.1,0.4 c10.6,13.2,20,27.3,30.1,40.9c13.1,17.3,26.2,34.9,41.1,50.7C372.8,641,360.2,641.3,347.5,641.6z M395.3,640.7 C395.3,640.7,395.3,640.7,395.3,640.7c-26.9-27.9-47.7-60.8-71.3-91.4c1.5,0,3.1,0,4.6,0.1c16.5,0.1,33,0.2,49.5,0.2 c11.7,19.8,25.7,38.2,39.6,56.4c9,11.5,18,23.1,27.4,34.4C428.5,640.4,411.9,640.5,395.3,640.7z M454.8,640.3 c-3.3-4-6.6-8.1-9.9-12.1c-20-25.5-40.6-50.9-57.5-78.7c15.8,0,31.7,0,47.5-0.1c0.8,1.4,1.6,2.7,2.3,4.1c6.9,12.3,15.1,24,23.4,35.4 c12.6,17.3,25,34.9,38.5,51.5C484.3,640.4,469.5,640.3,454.8,640.3z M508.4,640.6c-13.7-16.9-26.2-34.7-38.8-52.3 c-9-12.6-18.3-25.3-26-38.8c15.9-0.1,31.8-0.2,47.7-0.3c0.8,1.3,1.7,2.6,2.4,3.8c5.5,8.4,11.1,16.7,16.5,25.1 c14.4,21.4,29.2,42.5,44.8,63C539.5,640.9,524,640.7,508.4,640.6z M564.1,641.2c-4.9-6.7-9.7-13.5-14.4-20.1 c-17.1-23.5-32.4-48.3-49.2-72c10.5-0.1,21-0.2,31.5-0.2c0,0.9,0.3,1.9,1,3c11.7,15.3,19.9,33.3,30.8,49.2 c9.2,13.9,18.7,27.8,29.3,40.6C583.5,641.6,573.8,641.4,564.1,641.2z M603.1,641.9c-1.2-1.5-2.5-2.9-3.7-4.4c-7.3-9-14-18.5-20.6-28 c-14.2-19.2-24.3-40.9-37.5-60.7c15-0.1,30.1-0.2,45.1-0.3c4.5,9.8,14.4,24.5,16.6,28.7c13.9,22.6,27.6,45.7,45,65.8 C633,642.6,618,642.2,603.1,641.9z M658.4,643.2c-2.4-2.7-4.7-5.4-7-8.1c-14.7-18.2-26.9-38.2-39.1-58.1c-5.4-9-11.4-19-16.7-28.6 c19.2-0.1,38.3-0.2,57.5-0.3c0.8,1.5,1.6,3,2.2,4.4c6,11.4,12.9,22.4,19.7,33.3c12.9,20.7,26.7,41.2,43.4,59 C698.4,644.3,678.4,643.7,658.4,643.2z M729.3,645.2c-9.3-9.6-18.1-19.8-25.6-31.1c-14.7-21.3-28.9-43.1-41-66c10.4,0,20.8,0,31.3,0 c1.5,2.2,3,4.4,4.5,6.6c7.7,11.1,15.9,21.9,24.1,32.7c15.8,21.1,32.9,41.6,52.6,59.2C760,646.1,744.6,645.6,729.3,645.2z M787.2,646.9c-14.6-12.5-27.8-26.4-40-41.1c-14.9-18.7-29.1-38.3-43.3-57.7c18.8,0,37.7,0.1,56.5,0.3c4.3,13.3,19.7,34,24.2,41.7 c13.2,20.3,27.3,40.5,44,58.2C814.8,647.8,801,647.4,787.2,646.9z M840,648.6c-3.5-3.5-6.9-7.1-10.2-10.8 c-14.4-16.3-26.9-34.9-38.9-53.3c-7.5-11.8-16-23.2-21.5-36.1c16,0,32,0.1,47.9,0.3c0.1,0.2,0.2,0.4,0.3,0.5c3.8,7,7.9,13.9,12,20.8 c8.2,13.6,15.9,27.6,25.3,40.5c10.5,13.8,21.7,27.3,34.1,39.4C872.6,649.6,856.3,649.1,840,648.6z M900.6,650.4 c-11.6-11.6-22.4-23.9-32.8-36.5c-15.9-20.1-27.8-42.9-40.8-65c16.3,0.3,32.7,0.7,49,1.1c16.5,24.3,33.1,48.7,51.6,71.5 c7.6,9.4,15.4,18.6,23.5,27.5c0.9,1,1.8,1.9,2.7,2.9C936.1,651.4,918.3,650.9,900.6,650.4z M964.5,652.2c-4.1-4.7-8.4-9.2-12.5-13.9 c-4.2-4.8-8.4-9.7-12.5-14.7c-11.9-14.5-23.1-29.6-33.7-45c-6.6-9.4-13.3-18.8-19.8-28.3c18.1,0.5,36.1,1.2,54.2,1.8 c1.4,2.4,2.8,4.7,4.1,7.1c4.2,7.2,8.6,14.4,13,21.5c15.6,25.9,32.7,51.2,54.1,72.6C995.8,653,980.2,652.6,964.5,652.2z M1022.3,653.5c-13.8-14.5-26.7-29.5-38.2-46.1c-11.9-18-22.7-36.4-33.8-54.9c15.5,0.6,30.9,1.1,46.4,1.7c0.6,1.3,1.2,2.6,1.8,3.9 c5,10.4,10.8,20.5,16.4,30.6c13.2,23,28.5,45.1,45.6,65.5C1047.8,654,1035.1,653.8,1022.3,653.5z M1077.8,654.5 c-2.4,0-4.8-0.1-7.2-0.1c-4.8-5.9-9.5-11.8-14.2-18.1c-19.4-25.5-36.3-52.9-50.3-81.7c15,0.5,29.9,1,44.9,1.5 c6.1,15.1,16,28.4,25,41.9c13.6,20,27.9,39.7,44.1,57.8C1106,655.3,1091.9,655,1077.8,654.5z M1130.8,656.2 c-4.7-5.4-9.4-10.9-14-16.4c-21-26.1-40.4-54-56.6-83.3c0,0,0,0,0-0.1c20.4,0.6,40.9,1.1,61.4,1.4c2.4,5.7,6.9,11.1,9.9,16.4 c4.6,7.1,9.1,14.2,13.7,21.3c14.2,23.1,31,44.6,49.1,64.8C1173.1,658.1,1152,657,1130.8,656.2z M1270.1,673.8 c-0.7-0.5-1.5-1-2.4-1.4c-20.6-5.1-41.4-8.5-62.4-10.9c-7.7-8.9-15.4-17.8-22.8-27.2c-19.4-23.8-34.9-50.4-51.3-76.3 c18.5,0.2,37,0.3,55.5,0.2c2.7-0.2,5.4-0.3,8.1-0.4c3.4,7,6.5,14.1,10.1,21c11.5,22.3,25.4,43.4,41.2,62.8c0-0.1-0.1-0.1-0.1-0.2 c9,11.3,18.7,22.1,28.8,32.5C1273.3,673.8,1271.7,673.8,1270.1,673.8z M1284.8,673.8c-5.1-5.6-10.1-11.3-15.3-16.9 c-26.9-29.8-49.5-63.4-66.7-99.6c7.6-0.3,15.2-0.6,22.9-0.8c0.6,0.1,1.2,0.2,1.8,0.4c2.2,0.4,4.3,0.2,6.2-0.5 c6.4-0.1,12.8-0.2,19.2-0.2c0.1,1.4,0.8,2.8,1.5,4.1c25.6,41.7,57.6,79.3,92.1,113.9C1326,674.1,1305.4,673.9,1284.8,673.8z M1357.7,674c-3.9-3.9-7.9-7.8-11.7-11.8c-30.9-33-61.2-67-84.1-106.1c15.9,0,31.8,0.3,47.6,0.8c19.4,29.3,41,57.1,63.4,84.1 c9.6,11.5,19.9,22.3,30.4,33C1388.1,673.8,1372.9,673.8,1357.7,674z M1428.7,674.5c-4.9-0.1-9.9-0.2-14.8-0.3 c-7.8-8.1-15.5-16.3-23.1-24.6c-25.5-29.3-49.3-60.3-71.2-92.4c18,0.6,36,1.5,54,2.5c0.1,0.2,0.2,0.3,0.2,0.5 c1.8,3.3,3.8,6.5,5.7,9.7c8.3,14,18.4,26.6,29,38.9c19,22.2,38.5,44,58.5,65.3C1454.4,674.2,1441.5,674.4,1428.7,674.5z M1476.6,674 c-3.2-3.6-6.3-7.3-9.5-10.9c-10.4-11.7-21.1-23.2-31.4-35c-18.8-21.6-38.3-42.4-52.4-67.6c-0.1-0.1-0.1-0.2-0.2-0.3 c12.1,0.7,24.2,1.5,36.2,2.3c6.1,9.4,13.4,17.9,20.4,26.7c11.3,14.3,23.9,28.5,36.2,42.3c12.5,14.3,25,28.7,38.6,42 C1501.9,673.7,1489.3,673.8,1476.6,674z M1525,673.2c-4-3.8-8-7.7-12-11.9c-29.3-31.5-57.7-63.8-83.5-98.2 c17.1,1.1,34.1,2.3,51.2,3.5c24.5,38.9,54.7,74.5,88.9,105.5C1554.8,672.6,1539.9,673,1525,673.2z M1580.5,671.7 c-9-7.9-17.7-16.2-26.1-24.8c-23.7-24.6-45.3-51.2-64.1-79.7c16.8,1.1,33.6,2.2,50.4,3.1c6,8.9,12.6,17.5,19.4,25.7 c23.6,26.1,48.6,51.3,76.3,73C1617.8,670.2,1599.2,671.1,1580.5,671.7z M1647.6,668.5c-13.5-10.4-26.4-21.5-38.7-33.3 c-15.9-15.4-31.6-31.2-45.9-48.2c-4.1-5.3-8.2-10.6-12.1-16.1c15.4,0.8,30.8,1.5,46.2,2c10.4,13.3,21.6,26,33.3,38.2 c18.1,18.9,36.7,37.5,56.6,54.5C1673.8,666.7,1660.7,667.7,1647.6,668.5z M1697.3,664.8c-3.2-2.8-6.5-5.6-9.7-8.4 c-28.2-25.8-55.8-53.1-80-83c6.6,0.2,13.2,0.4,19.8,0.5c7,0,14.5,0,22.1-0.1c1.1,1.6,2.2,3.1,3.3,4.7c6.9,9.5,13.8,18.9,21.3,27.9 c17,19.9,35.8,38.2,55.5,55.3C1718.8,662.7,1708.1,663.8,1697.3,664.8z M1739.8,660.4c-10.6-9.2-20.9-18.3-31-28.2 c-18.3-18.1-35.3-37.5-50-58.6c1.4,0,2.8,0,4.2-0.1c12.6-0.3,25.8-0.8,39.5-1.6c16.5,19.2,33.8,37.7,52,55.4 c9.9,9.2,19.9,18.8,30.8,27C1770.1,656.6,1755,658.6,1739.8,660.4z M1795.6,652.6c-11.3-8.2-21.6-17.7-31.8-27.2 c-17.8-16.9-34.5-35.7-51-54.2c13.8-0.9,27.9-2.2,42.1-3.8c22,21.9,45.8,42.1,70.8,60.6c6.6,4.9,13.3,9.7,20.1,14.2 C1828.8,646.4,1811.8,649.7,1795.6,652.6z M1855.5,639.6c-0.6-0.4-1.2-0.7-1.7-1.1c-31.9-21-61.1-45.8-88.6-72.4 c14.1-1.8,28.3-4,42.3-6.7c3.3,3.6,6.6,7.2,10,10.6c21.4,22.3,45.8,41.4,71.3,58.8C1878,633,1866.8,636.5,1855.5,639.6z M1897.2,625.6c-7.7-5.3-15.4-10.5-22.9-16.1c-20.7-15.5-40.5-32.4-57.6-51.8c11.7-2.4,23.4-5.2,34.7-8.3 c14,13.7,29.7,25.6,45.3,37.5c10.6,7.8,21,16,31.9,23.3C1918.7,616,1908.2,621.1,1897.2,625.6z M1935.4,605.9 c-2.7-1.8-5.3-3.6-8-5.6c-22.7-17.1-45.8-34.4-66.8-53.8c11.5-3.4,22.7-7.3,33.4-11.6c10.3,8.3,21.4,15.8,32,23.8 c12,8.5,24,17.3,36.4,25.3C1954.3,592.3,1945.3,599.5,1935.4,605.9z M1967.3,578.7c-2.7-1.7-5.3-3.5-8-5.3 c-19.3-13.5-38.4-27.5-57.1-41.9c9-3.9,17.7-8.2,26-12.9c1.4,0.9,2.8,1.8,4.2,2.7c17.3,10.7,35.2,20.4,53,30.2 C1980.6,561.6,1974.5,570.6,1967.3,578.7z M1988.4,545.1c-9-5.2-18.1-10.2-27.1-15.3c-8.8-4.7-17.3-10-25.5-15.5 c7-4.3,13.6-8.9,19.9-13.8c3,1.5,6,3.1,9,4.6c10.6,5,20.6,11.1,30.8,16.8C1993.7,530.1,1991.4,537.8,1988.4,545.1z M1996.7,514.4 c-5.5-3.2-11-6.5-16.6-9.8c-6-3.2-12-6.2-17.9-9.5c6-5.2,11.6-10.7,16.7-16.5c7,4,13.7,8.5,20.3,13.2 C1998.3,499.4,1997.5,506.9,1996.7,514.4z M1999.9,483.8c-3.1-2.2-6.3-4.4-9.5-6.5c-2.3-1.4-4.5-2.9-6.8-4.4 c4.2-5.4,8.1-11,11.5-16.9c3.1-5.8,5.9-12.5,8.3-20.1C2002.7,451.8,2001.4,467.8,1999.9,483.8z M188.7,671.7 c1.4-0.2,2.9-0.5,4.3-0.7c-0.9,0.4-1.8,0.7-2.8,0.9C189.7,671.8,189.2,671.8,188.7,671.7z M119.4,138.2c-1.4-1.9-0.9-4.6,1-6 c7.7-5.4,15.5-10.8,23.5-15.8c36.1-21.4,88.5-40.8,130.8-39.8c2.3,0.1,4.2,2,4.2,4.4c-0.5,4.7-4.4,4.3-8,4 c-41.7,1.2-86.1,17.6-122,38.4c-7.9,5.1-15.7,10.4-23.4,15.8C123.5,140.5,120.7,140.1,119.4,138.2z M318.3,75.8 c-0.2-2.3,1.5-4.5,3.8-4.7c3.4-0.4,7.9-1,8.5,3.5c0.2,2.3-1.5,4.5-3.8,4.7C323.5,79.7,318.8,80.2,318.3,75.8z M1893.6,139.2 c1.2-1.9,3.9-2.7,5.9-1.5c5,3.5,10.7,6.8,14,12c2.5,4.7-4.2,9.1-7.4,4.8c-1.6-3.3-5.2-5.1-8-7.4 C1895.4,145.4,1891.4,142.9,1893.6,139.2z M1691.6,86.2c36.6,1.6,73.4,4,109.3,11.8c7.8,2,27.8,4.8,32.3,11c2.2,4.3-3.5,8.5-6.9,5 c-14.5-6.1-30.4-8.1-45.8-11.1c-29.5-4.8-59.3-6.7-89.2-8C1685.9,94.5,1686,86.2,1691.6,86.2z" fill="#00003d"/></g></svg>