<?xml version="1.0" encoding="UTF-8" standalone="no"?><svg xmlns="http://www.w3.org/2000/svg" xmlns:xlink="http://www.w3.org/1999/xlink" fill="#020202" height="504" preserveAspectRatio="xMidYMid meet" version="1" viewBox="-0.1 0.0 522.9 504.0" width="522.9" zoomAndPan="magnify"><g id="change1_1"><path d="M509.4,250.6l10.9-220.7c0-0.8-0.2-1.6-0.8-2.1c-0.5-0.6-1.3-0.9-2.1-1l-21.7-1.1l-1.4-22.9c-0.1-1.6-1.5-2.8-3.1-2.8 L260,14.1L28.8,2.7c-1.6-0.1-3,1.2-3.1,2.8l-1.1,22.9L2.8,29.8c-1.6,0.1-2.9,1.5-2.8,3.1l13.4,220.5L2.6,474.1 c-0.1,1.6,1.2,3,2.8,3.1l21.7,1.1l1.4,22.9c0.1,1.6,1.4,2.8,3,2.8c0.1,0,0.1,0,0.2,0l231.1-14.1l231.3,11.4c0.1,0,0.1,0,0.1,0 c0.7,0,1.4-0.3,2-0.8c0.6-0.5,0.9-1.3,1-2.1l1.1-22.9l21.7-1.3c0.8,0,1.5-0.4,2-1c0.5-0.6,0.8-1.4,0.7-2.1L509.4,250.6z M514.2,32.5 l-8.1,164l-10-164.9L514.2,32.5z M503.5,250.6L492.7,470l-229.9,14l-230-11.3L19.4,253.4L30.2,34l229.9-14l230,11.3L503.5,250.6z M488.6,6.1l1.2,19.3l-175.6-8.6L488.6,6.1z M31.4,8.8L206,17.4L30.5,28.1L31.4,8.8z M6.1,35.5l18.1-1.1l-8.1,165L6.1,35.5z M8.7,471.5l8.1-164l10,164.9L8.7,471.5z M34.3,497.9l-1.2-19.3l175.6,8.6L34.3,497.9z M491.4,495.2l-174.6-8.6l175.6-10.7 L491.4,495.2z M498.6,469.6l8.1-165l10,163.9L498.6,469.6z" fill="inherit"/></g></svg>