<?xml version="1.0" encoding="UTF-8"?><svg xmlns="http://www.w3.org/2000/svg" xmlns:xlink="http://www.w3.org/1999/xlink" height="108.0" preserveAspectRatio="xMidYMid meet" version="1.0" viewBox="38.8 196.0 422.5 108.0" width="422.5" zoomAndPan="magnify"><defs><radialGradient cx="0" cy="0" fx="0" fy="0" gradientTransform="matrix(1.03805 0 0 .96196 250 250)" gradientUnits="userSpaceOnUse" id="b" r="149.258" xlink:actuate="onLoad" xlink:show="other" xlink:type="simple" xmlns:xlink="http://www.w3.org/1999/xlink"><stop offset="0" stop-color="#e30000"/><stop offset=".25" stop-color="#e20001"/><stop offset=".344" stop-color="#e20001"/><stop offset=".426" stop-color="#e10002"/><stop offset=".496" stop-color="#e10002"/><stop offset=".559" stop-color="#e00003"/><stop offset=".613" stop-color="#e00003"/><stop offset=".66" stop-color="#e00004"/><stop offset=".699" stop-color="#df0004"/><stop offset=".734" stop-color="#de0005"/><stop offset=".801" stop-color="#de0006"/><stop offset=".848" stop-color="#dd0007"/><stop offset=".883" stop-color="#dd0007"/><stop offset=".91" stop-color="#dc0008"/><stop offset=".953" stop-color="#db0009"/><stop offset="1" stop-color="#db0009"/></radialGradient><clipPath id="a"><path d="M 38.773438 196.003906 L 461.226562 196.003906 L 461.226562 303.996094 L 38.773438 303.996094 Z M 38.773438 196.003906"/></clipPath></defs><g><g clip-path="url(#a)"><path d="M 38.773438 196.003906 L 38.773438 303.996094 L 461.226562 303.996094 L 461.226562 196.003906 Z M 38.773438 196.003906" fill="url(#b)"/></g><g id="change1_1"><path d="M 425.347656 267.472656 L 425.347656 232.605469 C 425.347656 230.535156 424.273438 229.464844 422.28125 229.464844 L 415.230469 229.464844 L 415.230469 270.535156 C 422.441406 270.535156 425.347656 271.3125 425.347656 267.472656 Z M 406.035156 219.347656 L 424.425781 219.347656 C 431.628906 219.347656 435.460938 223.257812 435.460938 230.460938 L 435.460938 269.617188 C 435.460938 276.820312 431.628906 280.652344 424.425781 280.652344 C 404.464844 280.652344 404.808594 281.113281 404.808594 279.425781 C 404.808594 216.046875 404.269531 219.347656 406.035156 219.347656 Z M 386.6875 229.539062 L 367.527344 229.539062 L 367.527344 244.867188 C 383.214844 244.867188 383.390625 244.398438 383.390625 246.167969 C 383.390625 254.160156 383.761719 255.058594 382.164062 255.058594 L 367.527344 255.058594 L 367.527344 270.535156 C 388.464844 270.535156 387.910156 270.058594 387.910156 271.761719 C 387.910156 280.097656 388.3125 280.652344 386.6875 280.652344 C 356.351562 280.652344 357.335938 281.113281 357.335938 279.425781 C 357.335938 216.5625 356.78125 219.347656 358.484375 219.347656 C 389.195312 219.347656 387.910156 218.863281 387.910156 220.574219 C 387.910156 228.875 388.28125 229.539062 386.6875 229.539062 Z M 326.1875 250 C 328.183594 250 329.253906 248.925781 329.253906 246.933594 L 329.253906 232.527344 C 329.253906 230.535156 328.183594 229.464844 326.1875 229.464844 L 318.601562 229.464844 L 318.601562 250 Z M 339.675781 249.082031 C 339.675781 254.214844 337.761719 257.585938 334.082031 259.195312 L 339.367188 279.273438 C 339.828125 281.097656 338.574219 280.652344 330.328125 280.652344 C 328.921875 280.652344 329.578125 281.6875 323.890625 260.113281 L 318.601562 260.113281 L 318.601562 279.425781 C 318.601562 280.191406 318.144531 280.652344 317.378906 280.652344 L 309.40625 280.652344 C 308.640625 280.652344 308.179688 280.191406 308.179688 279.425781 L 308.179688 220.574219 C 308.179688 219.808594 308.640625 219.347656 309.40625 219.347656 L 328.640625 219.347656 C 335.84375 219.347656 339.675781 223.179688 339.675781 230.382812 Z M 280.632812 267.703125 L 280.632812 232.296875 C 280.632812 230.304688 279.558594 229.234375 277.566406 229.234375 C 273.164062 229.234375 270.058594 228.582031 270.058594 232.296875 L 270.058594 267.703125 C 270.058594 269.769531 271.128906 270.765625 273.121094 270.765625 C 277.589844 270.765625 280.632812 271.445312 280.632812 267.703125 Z M 259.863281 230.382812 C 259.863281 223.179688 263.695312 219.347656 270.898438 219.347656 L 279.480469 219.347656 C 286.6875 219.347656 290.515625 223.179688 290.519531 230.382812 L 290.519531 269.617188 C 290.515625 282.324219 279.933594 280.652344 270.898438 280.652344 C 263.695312 280.652344 259.863281 276.820312 259.863281 269.617188 Z M 242.203125 230.382812 C 242.203125 239.039062 242.609375 239.730469 240.976562 239.730469 C 232.640625 239.730469 231.78125 240.121094 231.78125 238.503906 C 231.78125 232.296875 232.480469 229.464844 228.714844 229.464844 C 225.09375 229.464844 221.972656 228.878906 221.972656 232.527344 L 221.972656 243.105469 L 240.210938 249.082031 C 241.511719 249.617188 242.203125 250.460938 242.203125 251.914062 L 242.203125 269.617188 C 242.203125 276.820312 238.371094 280.652344 231.167969 280.652344 L 222.585938 280.652344 C 215.457031 280.652344 211.550781 276.820312 211.550781 269.617188 C 211.550781 261.070312 211.152344 260.34375 212.777344 260.34375 C 221.417969 260.34375 221.972656 259.9375 221.972656 261.570312 C 221.972656 267.28125 221.199219 270.535156 225.035156 270.535156 C 228.800781 270.535156 231.78125 271.144531 231.78125 267.472656 L 231.78125 257.28125 L 213.617188 251.304688 C 212.238281 250.84375 211.550781 249.921875 211.550781 248.46875 L 211.550781 230.382812 C 211.550781 223.179688 215.457031 219.347656 222.585938 219.347656 C 231.613281 219.347656 242.203125 217.675781 242.203125 230.382812 Z M 193.886719 220.574219 C 193.886719 283.839844 194.429688 280.652344 192.660156 280.652344 C 184.4375 280.652344 184.140625 280.984375 183.695312 279.65625 L 171.972656 246.933594 L 171.589844 246.933594 C 171.589844 282.074219 172.109375 280.652344 170.363281 280.652344 C 162.027344 280.652344 161.164062 281.039062 161.164062 279.425781 C 161.164062 216.160156 160.621094 219.347656 162.394531 219.347656 C 170.617188 219.347656 170.914062 219.015625 171.359375 220.34375 L 183.007812 252.910156 L 183.464844 252.910156 C 183.464844 217.941406 182.941406 219.347656 184.691406 219.347656 C 193.027344 219.347656 193.886719 218.960938 193.886719 220.574219 Z M 142.277344 229.539062 L 123.121094 229.539062 L 123.121094 244.867188 C 138.808594 244.867188 138.984375 244.398438 138.984375 246.167969 C 138.984375 254.160156 139.355469 255.058594 137.757812 255.058594 L 123.121094 255.058594 L 123.121094 270.535156 C 144.054688 270.535156 143.503906 270.058594 143.503906 271.761719 C 143.503906 280.097656 143.90625 280.652344 142.277344 280.652344 C 111.945312 280.652344 112.929688 281.113281 112.929688 279.425781 C 112.929688 216.5625 112.371094 219.347656 114.078125 219.347656 C 144.785156 219.347656 143.503906 218.863281 143.503906 220.574219 C 143.503906 228.875 143.875 229.539062 142.277344 229.539062 Z M 94.039062 239.886719 C 85.847656 239.886719 85.152344 240.261719 85.152344 238.660156 C 85.152344 232.625 85.910156 229.464844 82.085938 229.464844 C 78.070312 229.464844 75.035156 228.816406 75.035156 232.527344 L 75.035156 267.472656 C 75.035156 269.539062 76.109375 270.535156 78.101562 270.535156 C 82.058594 270.535156 85.152344 271.207031 85.152344 267.472656 C 85.152344 261.078125 84.75 260.113281 86.378906 260.113281 C 94.292969 260.113281 95.265625 259.710938 95.265625 261.339844 C 95.265625 269.886719 96.9375 280.652344 84.230469 280.652344 L 75.648438 280.652344 C 68.445312 280.652344 64.539062 276.820312 64.539062 269.617188 L 64.539062 230.382812 C 64.539062 223.179688 68.445312 219.347656 75.648438 219.347656 L 84.230469 219.347656 C 91.359375 219.347656 95.265625 223.179688 95.265625 230.382812 C 95.265625 239.0625 95.65625 239.886719 94.039062 239.886719" fill="#fff"/></g></g></svg>