<?xml version="1.0" encoding="UTF-8" standalone="no"?><svg xmlns="http://www.w3.org/2000/svg" xmlns:xlink="http://www.w3.org/1999/xlink" fill="#54a233" height="158.7" preserveAspectRatio="xMidYMid meet" version="1" viewBox="-0.1 -18.3 496.2 158.7" width="496.2" zoomAndPan="magnify"><g id="change1_1"><path d="M364.61,122.27h0Z"/></g><g id="change1_2"><path d="M473.3,51.66c4.89-9.92,22.78-31.59,20.5-41.67C472.06-.14,477.16,2.05,454.47,4.75c-18.33-.25-24.74-1-28.66,19.8-3.51-6.22-19-10.61-24.93-13.52-4.14-1.64-8.46-.48-12.86.45-6.89-2.57-15.61-7.58-23.07-8-11.11-.08-22,1.29-33.11,1.66-5,.44-11.29-1-15.65,2.11a3.52,3.52,0,0,0-1.66,2.3c-.24,0-12.1-5.33-12-4.82-6.49.26-12.59,1.11-19.27.8-6.43.13-16.64-2.18-17.49,6.49-3.46-1-18.55-8.86-22.15-8-9.51,3.24-27.44-.38-28.29,13.06C187.16,1.32,158.54-1,133.46,23.55c-.93-4.72-1.45-9.83-3.35-14.18-1.26-1.88-18.3-8.11-20.46-9.26-11.14-.78-23,2.86-34.34,3-10.84-2-9.12,8.43-10.6,18.43-.93-2.38-2.1-5.21-4.37-6.56-16-6.74-16.83-9.27-34.55-5-20,.78-18.14,23.83-19.63,38.71C5.3,63.89,5.35,79.16,4.37,94.44A203,203,0,0,1,0,127a2.07,2.07,0,0,0,.91,2c8.68,3.49,22.42,11.4,32.19,7.33,6.34-2.48,12.77,1.39,18.56-1.75h0c2-1.43,2.27-4,2.4-6.24,6.19,2.78,14,6.62,20.76,3.65,5.9-1.85,15.3.68,17.84-6.67a13.78,13.78,0,0,0,.56-1.57l11.7,4.9c10.44,2.21,22.69,1.93,33.23-2.58,1-1.21,1.38-.85,2.74-.21,11.61,4.78,25.88,12.14,38.87,11.57a60.84,60.84,0,0,0,23.3-4.45c4.22-.72,8.18-6.49,11.8-3.67,15.65,6.84,19.41,9.69,37.1,7,6.15-.3,13.74-1.43,14-9.12,21.4,11,22.39,4.75,44.16,3,4.4,1.25,17.16,8.74,21.89,7.1,16.82-.61,33.68-2.54,50.56-3.24,6.27-.91,3.74-10.67,3.9-15.16-.29-5.64,2.42-13.76-4.47-16.36-.53-.19-19.19-8.14-19-7.89-2.07-1.26-7.51.41-8.69-1.06,0-.66.08-1.43.18-2.09,3.58-2.79,9.14-2.68,13.4-4.36,9.25-2.2,10.45-12.6,10.42-20.62a7.48,7.48,0,0,0-3.45-6.06c-.47-.29-14.6-6.12-15.13-6.37.2-2.72.5-5.47.8-8.18,6.88-.4,13.94-.76,20.83-1.42,5.95,9.07,17.24,17.65,21.77,27,2.48,9.69-1.11,23.36.22,33.92,1.13,8.3-.8,16.69-.51,23.85,2.91,2.14,15.13,6.18,18.48,8,12.79,1.33,25.94-2.43,38.64-1.28a2,2,0,0,0,2.07-1.38c2.31-16.12.57-32.42.49-48.61a54.73,54.73,0,0,0-.31-7c-.38-3.18-2-4.31.19-7.3C465.74,64.89,469.45,58.23,473.3,51.66ZM299.7,117.32c-10.51,2.43-22.13,2.61-32.75,5.13-7.92,3.85-16.34-53.9-22.4-41.86-2.8,9.9-1.08,20.33-.93,30.45-.18,4,2.59,10.6-2.31,12.56a26.51,26.51,0,0,1-6.79,1.14c-6,0-12.35,2-18.19.76-3.67-12.14.29-27.89,0-40.8-6.95,27.05-35,45.45-62.6,40.52-17-2.44-32.35-14.66-37.45-31.17-.62,5.38,3.05,19.28-.32,22.11a60.44,60.44,0,0,1-27.13,1.29c-5.64-26.7-3.32-67.69-15.52-10.27-.9,3.66-.82,8.09-3.33,11.07-3.6,1.76-9.64,1-13.77,2.32-2.49.39-5.6,1.68-8,.78-4.79-11.81-3.79-38-13.63-45.4-3,.14-1.33,10.4-1.91,12-.13,9.62-1,19.21-.39,28.83-.16,2,.88,6.64-1.48,7.44-8.86-1.34-17.46,1.62-26.29,1.55C12,92.69,6.63,57.63,13.24,24.6c1.62-12.83,18.61-11,28-12.79,2.45,3.26,2.8,7.59,3.62,11.48,1.09,5.57,2.9,10.9,4.4,16.41C60.3,91.55,66.47,41,69,20.41c.94-2.87-.39-12.55,3-13.17a278.49,278.49,0,0,0,34-3.53c9.7-.44,6.71,54.77,8.56,64.34C118.8,23.36,185-18.31,212.23,30.54a61.87,61.87,0,0,1,6.15,18.19c3.18-9.92-5.89-38.52,9.08-37.68,6,.08,13.23-4.16,19-2.57,13.15,51.43,30.41,108.59,22.87,10.2,0-7.18,1.18-8.25,1.22-8.3,7.15-2,18.45.06,26.1-1.19L300.42,9c-.24,3.59-.46,7.22-.64,10.79-.52,10-.76,20-.81,30C298.64,72.27,300.35,94.91,299.7,117.32Zm108-3c-.78-12.17-.21-23.91.39-36.11.9-11.29-8.78-18.55-15.61-26.39-7.2-8.9-14.32-17.79-21.15-27-.51,6.24-.18,7.13-6.77,8-4.41,1.43-25.1,0-25.64,3.25-.06,5-2.85,14.81.25,18.71,13.17,4.76,21.14-6.1,15.7,16-3.53,8.35-15.82,4.72-21.33,10.7-1.61,2.1-1.56,12-.43,14.54,6.82,7.58,26.1-2.4,31.59,4.78.73,3-.18,6.26-.07,9.38,0,3.87.74,8.39,0,12.17v0c-.59.68-2,.49-2.91.67-17.27-.2-34.53,3.22-51.69,2.81-1.84-25.24,1.29-51.91,2.82-77.41,1.3-12.51,3.74-25.17,5.57-37.57,2.22-1.73,5.58-1.6,8.42-1.46,10.8-.11,21.5-1,32.11-1.72,3.24,0,10.12-.63,12.2,1.91,0,3.15.35,6.37.3,9.63,10.06.14,24.21-10,32.1-1,6.31,7,10.17,16,14.9,24.26,4.63,9.4,10.41-15.33,11.91-18.85,3.25-7.49.45-14.47,12.15-14.43a164.91,164.91,0,0,0,29.44-2.54C463.67,28.16,447,46,438.7,67.59a2,2,0,0,0,.93,1.69c1.25,2.85.91,6.43,1,9.52,0,7.18.48,14.43.6,21.6.12,5.14.13,10.34-.09,15.47-.63,4,1.27,9.8-4.56,8.24-7.69,0-15.4,2-23.06,1.75C403.2,127.35,408.55,121.6,407.65,114.33Z"/></g><g id="change1_3"><path d="M182.68,39.26a17.71,17.71,0,0,0-8-3.42c-5-.78-10,.77-14.2,3.4C149.19,46.49,142.09,60.73,144,74.18a19.17,19.17,0,0,0,11.82,14.91C183.09,100.31,203.25,56.58,182.68,39.26Zm-16.4,43.91c-1.68-5.74-.62-12,1.55-17.43C170.91,58,176.78,51,184.7,48.09c4.25,8.72,1.69,21.72-3.43,29.3C178.74,81.25,168.15,90.72,166.28,83.17Z"/></g><g id="change1_4"><path d="M244.08,119.86s0,0,0,0S244.09,119.85,244.08,119.86Z"/></g></svg>